<?xml version="1.0" encoding="utf-8"?>
<svg viewBox="0.8324 0.6889 4.8601 22.4962" xmlns="http://www.w3.org/2000/svg">
  <g id="g-3" transform="matrix(0.18984700739383698, 0, 0, 0.18984700739383698, 0.9491350650787345, 0.6922640204429626)" style="opacity: 0.9;">
    <title>cross</title>
    <desc>Created with Sketch Beta.</desc>
    <defs/>
    <g id="Page-1" stroke-width="0.00025" fill="none" fill-rule="evenodd">
      <g id="Icon-Set-Filled" transform="translate(-469.000000, -1041.000000)" fill="#C46526">
        <path d="M487.148,1053.48 L492.813,1047.82 C494.376,1046.26 494.376,1043.72 492.813,1042.16 C491.248,1040.59 488.712,1040.59 487.148,1042.16 L481.484,1047.82 L475.82,1042.16 C474.257,1040.59 471.721,1040.59 470.156,1042.16 C468.593,1043.72 468.593,1046.26 470.156,1047.82 L475.82,1053.48 L470.156,1059.15 C468.593,1060.71 468.593,1063.25 470.156,1064.81 C471.721,1066.38 474.257,1066.38 475.82,1064.81 L481.484,1059.15 L487.148,1064.81 C488.712,1066.38 491.248,1066.38 492.813,1064.81 C494.376,1063.25 494.376,1060.71 492.813,1059.15 L487.148,1053.48" id="cross"/>
      </g>
    </g>
  </g>
  <g id="g-6" transform="matrix(0.18984700739383698, 0, 0, 0.18984700739383698, 0.9017220735549918, 6.627396106719971)" style="opacity: 0.9;">
    <title>cross</title>
    <desc>Created with Sketch Beta.</desc>
    <defs/>
    <g id="g-7" stroke-width="0.00025" fill="none" fill-rule="evenodd">
      <g id="g-8" transform="translate(-469.000000, -1041.000000)" fill="#C46526">
        <path d="M487.148,1053.48 L492.813,1047.82 C494.376,1046.26 494.376,1043.72 492.813,1042.16 C491.248,1040.59 488.712,1040.59 487.148,1042.16 L481.484,1047.82 L475.82,1042.16 C474.257,1040.59 471.721,1040.59 470.156,1042.16 C468.593,1043.72 468.593,1046.26 470.156,1047.82 L475.82,1053.48 L470.156,1059.15 C468.593,1060.71 468.593,1063.25 470.156,1064.81 C471.721,1066.38 474.257,1066.38 475.82,1064.81 L481.484,1059.15 L487.148,1064.81 C488.712,1066.38 491.248,1066.38 492.813,1064.81 C494.376,1063.25 494.376,1060.71 492.813,1059.15 L487.148,1053.48" id="path-1"/>
      </g>
    </g>
  </g>
  <g id="g-9" transform="matrix(0.18984700739383698, 0, 0, 0.18984700739383698, 0.8828759789466849, 12.506166458129883)" style="opacity: 0.9;">
    <title>cross</title>
    <desc>Created with Sketch Beta.</desc>
    <defs/>
    <g id="g-10" stroke-width="0.00025" fill="none" fill-rule="evenodd">
      <g id="g-11" transform="translate(-469.000000, -1041.000000)" fill="#C46526">
        <path d="M487.148,1053.48 L492.813,1047.82 C494.376,1046.26 494.376,1043.72 492.813,1042.16 C491.248,1040.59 488.712,1040.59 487.148,1042.16 L481.484,1047.82 L475.82,1042.16 C474.257,1040.59 471.721,1040.59 470.156,1042.16 C468.593,1043.72 468.593,1046.26 470.156,1047.82 L475.82,1053.48 L470.156,1059.15 C468.593,1060.71 468.593,1063.25 470.156,1064.81 C471.721,1066.38 474.257,1066.38 475.82,1064.81 L481.484,1059.15 L487.148,1064.81 C488.712,1066.38 491.248,1066.38 492.813,1064.81 C494.376,1063.25 494.376,1060.71 492.813,1059.15 L487.148,1053.48" id="path-2"/>
      </g>
    </g>
  </g>
  <g id="g-12" transform="matrix(0.18984700739383698, 0, 0, 0.18984700739383698, 0.835463047027587, 18.44129753112793)" style="opacity: 0.9;">
    <title>cross</title>
    <desc>Created with Sketch Beta.</desc>
    <defs/>
    <g id="g-13" stroke-width="0.00025" fill="none" fill-rule="evenodd">
      <g id="g-14" transform="translate(-469.000000, -1041.000000)" fill="#C46526">
        <path d="M487.148,1053.48 L492.813,1047.82 C494.376,1046.26 494.376,1043.72 492.813,1042.16 C491.248,1040.59 488.712,1040.59 487.148,1042.16 L481.484,1047.82 L475.82,1042.16 C474.257,1040.59 471.721,1040.59 470.156,1042.16 C468.593,1043.72 468.593,1046.26 470.156,1047.82 L475.82,1053.48 L470.156,1059.15 C468.593,1060.71 468.593,1063.25 470.156,1064.81 C471.721,1066.38 474.257,1066.38 475.82,1064.81 L481.484,1059.15 L487.148,1064.81 C488.712,1066.38 491.248,1066.38 492.813,1064.81 C494.376,1063.25 494.376,1060.71 492.813,1059.15 L487.148,1053.48" id="path-3"/>
      </g>
    </g>
  </g>
</svg>