<?xml version="1.0" encoding="utf-8"?>
<svg viewBox="-1.8125 -2.0499 27.532 25.0277" xmlns="http://www.w3.org/2000/svg">
  <g id="g-3" transform="matrix(0.564266979694, -0.464480012655, 0.371366918087, 0.451151013374, -2.489693941465, -2.013664854363)" style="transform-origin: 12px 12px;">
    <g transform="matrix(1.039755, 0, 0, 1.09485, -3.244476, 1.685956)" style="">
      <path d="M 2 6 C 2 5.448 2.448 5 3 5 L 23.576 5.365 C 24.128 5.365 24.576 5.812 24.576 6.365 C 24.576 6.917 24.128 7.365 23.576 7.365 L 3 7 C 2.448 7 2 6.552 2 6 Z" fill="#C46526"/>
      <path d="M 5.006 12.36 C 5.006 11.807 5.454 11.36 6.006 11.36 L 34.063 10.729 C 34.615 10.729 35.063 11.176 35.063 11.729 C 35.063 12.281 34.615 12.729 34.063 12.729 L 6.006 13.36 C 5.454 13.36 5.006 12.912 5.006 12.36 Z" fill="#C46526"/>
      <path d="M -0.141 17.848 C -0.933 17.848 -1.574 18.296 -1.574 18.848 C -1.574 19.4 -0.933 19.848 -0.141 19.848 L 30.122 19.569 C 30.913 19.569 31.555 19.121 31.555 18.569 C 31.555 18.017 30.913 17.569 30.122 17.569 L -0.141 17.848 Z" fill="#C46526" style=""/>
    </g>
  </g>
</svg>