<!DOCTYPE svg PUBLIC "-//W3C//DTD SVG 1.1//EN" "http://www.w3.org/Graphics/SVG/1.1/DTD/svg11.dtd">
<!-- Uploaded to: SVG Repo, www.svgrepo.com, Transformed by: SVG Repo Mixer Tools -->
<svg width="800px" height="800px" viewBox="0 0 512 512" version="1.1" xml:space="preserve" xmlns="http://www.w3.org/2000/svg" xmlns:xlink="http://www.w3.org/1999/xlink" fill="#000000" stroke="#000000">
<g id="SVGRepo_bgCarrier" stroke-width="0"/>
<g id="SVGRepo_tracerCarrier" stroke-linecap="round" stroke-linejoin="round"/>
<g id="SVGRepo_iconCarrier"> <g id="_x34_86_x2C__abc_x2C__blocks_x2C__basic_x2C__alphabet_x2C__knowledge"> <g> <path d="M346,302.67v126.66c0,14.729-11.94,26.67-26.67,26.67H192.67c-14.73,0-26.67-11.94-26.67-26.67 V302.67c0-14.729,11.94-26.67,26.67-26.67h126.66C334.06,276,346,287.94,346,302.67z" style="fill:#71c67f;"/> <path d="M174.875,438.455v-126.66c0-14.729,11.94-26.67,26.67-26.67h126.66 c5.19,0,10.03,1.487,14.127,4.052C337.698,281.295,329.135,276,319.33,276H192.67c-14.73,0-26.67,11.94-26.67,26.67v126.66 c0,9.539,5.012,17.904,12.542,22.618C176.215,447.989,174.875,443.38,174.875,438.455z" style="fill:#414A56;"/> <path d="M456,82.67v126.66c0,14.73-11.94,26.67-26.67,26.67H302.67C287.94,236,276,224.06,276,209.33V82.67 C276,67.94,287.94,56,302.67,56h126.66C444.06,56,456,67.94,456,82.67z" style="fill:#A8CFFF;"/> <path d="M285.25,219.33V92.67c0-14.73,11.94-26.67,26.67-26.67h126.66c5.268,0,10.174,1.533,14.31,4.168 C448.408,61.741,439.541,56,429.33,56H302.67C287.94,56,276,67.94,276,82.67v126.66c0,9.462,4.932,17.767,12.36,22.501 C286.378,228.102,285.25,223.849,285.25,219.33z" style="fill:#8BBAE8;"/> <path d="M209.33,56H82.67C67.94,56,56,67.94,56,82.67v126.66C56,224.06,67.94,236,82.67,236h126.66 c14.73,0,26.67-11.94,26.67-26.67V82.67C236,67.94,224.06,56,209.33,56z" style="fill:#EF4D4D;"/> <path d="M63.083,217.747V91.087c0-14.73,11.94-26.67,26.67-26.67h126.66c6.204,0,11.907,2.124,16.438,5.675 C228.356,61.706,219.511,56,209.33,56H82.67C67.94,56,56,67.94,56,82.67v126.66c0,8.526,4.006,16.112,10.232,20.995 C64.225,226.577,63.083,222.296,63.083,217.747z" style="fill:#EF4D4D;"/> <path d="M398.48,162.21c0,7.11-3.091,12.71-7.721,16.68c-5.41,4.54-14.47,7.11-29.26,7.11c-8.28,0-14.46-0.58-18.21-1.17v-77.2 c4.41-0.93,13.35-1.63,21.75-1.63c10.26,0,16.55,1.05,21.96,4.43c5.19,2.92,8.95,8.28,8.95,15.4c0,6.99-3.87,13.52-12.26,16.79 v0.23C392.19,145.3,398.48,152.06,398.48,162.21z M366.47,172.82c7.62,0,14.351-3.03,14.351-11.31c0-7.93-6.73-11.08-15.12-11.08 h-5.74v22.16C361.61,172.82,363.6,172.82,366.47,172.82z M379.05,128.04c0-5.95-4.3-9.1-11.92-9.1c-3.64,0-5.74,0.24-7.17,0.47 v18.31h5.521C374.31,137.72,379.05,133.87,379.05,128.04z"/> <path d="M285.04,329.45l-3.42,13.93c-3.42-1.49-8.17-2.88-14.13-2.88c-13.36,0-23.74,8.41-23.74,25.67 c0,15.54,8.84,25.33,23.85,25.33c5.08,0,10.71-1.15,14.021-2.54l2.54,13.7c-3.09,1.609-10.05,3.34-19.101,3.34 c-25.72,0-38.97-16.69-38.97-38.79c0-26.479,18.11-41.21,40.63-41.21C275.44,326,282.06,327.84,285.04,329.45z"/> <path d="M158.92,106L182,176h-18.11l-5.74-17.97h-21.31L131.55,176H114.1l22.74-70H158.92z M155.72,146.19l-4.63-14.85 c-1.33-4.15-2.65-9.35-3.76-13.5h-0.22c-1.1,4.15-2.21,9.45-3.42,13.5l-4.42,14.85H155.72z"/> <path d="M209.33,241H82.67C65.207,241,51,226.793,51,209.33V82.67C51,65.207,65.207,51,82.67,51h126.66 C226.793,51,241,65.207,241,82.67v126.66C241,226.793,226.793,241,209.33,241z M82.67,61C70.721,61,61,70.721,61,82.67v126.66 C61,221.279,70.721,231,82.67,231h126.66c11.949,0,21.67-9.721,21.67-21.67V82.67C231,70.721,221.279,61,209.33,61H82.67z"/> <path d="M206,211c-2.761,0-5-2.239-5-5V91H91v115c0,2.761-2.239,5-5,5s-5-2.239-5-5V86c0-2.761,2.239-5,5-5h120 c2.761,0,5,2.239,5,5v120C211,208.761,208.761,211,206,211z"/> <path d="M429.33,241H302.67c-17.463,0-31.67-14.207-31.67-31.67V82.67C271,65.207,285.207,51,302.67,51h126.66 C446.793,51,461,65.207,461,82.67v126.66C461,226.793,446.793,241,429.33,241z M302.67,61C290.721,61,281,70.721,281,82.67v126.66 c0,11.949,9.721,21.67,21.67,21.67h126.66c11.949,0,21.67-9.721,21.67-21.67V82.67C451,70.721,441.279,61,429.33,61H302.67z"/> <path d="M426,211H306c-2.762,0-5-2.239-5-5V86c0-2.761,2.238-5,5-5s5,2.239,5,5v115h110V86c0-2.761,2.238-5,5-5s5,2.239,5,5v120 C431,208.761,428.762,211,426,211z"/> <path d="M319.33,461H192.67c-17.463,0-31.67-14.207-31.67-31.67V302.67c0-17.463,14.207-31.67,31.67-31.67h126.66 c17.463,0,31.67,14.207,31.67,31.67v126.66C351,446.793,336.793,461,319.33,461z M192.67,281c-11.949,0-21.67,9.721-21.67,21.67 v126.66c0,11.949,9.721,21.67,21.67,21.67h126.66c11.949,0,21.67-9.721,21.67-21.67V302.67c0-11.949-9.721-21.67-21.67-21.67 H192.67z"/> <path d="M316,431H196c-2.761,0-5-2.238-5-5V306c0-2.762,2.239-5,5-5h120c2.762,0,5,2.238,5,5s-2.238,5-5,5H201v110h115 c2.762,0,5,2.238,5,5S318.762,431,316,431z"/> </g> </g> <g id="Layer_1"/> </g>
</svg>