<?xml version="1.0" encoding="utf-8"?>
<svg viewBox="185.284 48.4474 260.9144 189.3926" xmlns="http://www.w3.org/2000/svg">
  <defs/>
  <g id="SVGRepo_iconCarrier" transform="matrix(0.264217019081, 0, 0, 0.264217019081, 77.832962011675, -124.216564419859)" style="transform-origin: 234.667px 234.667px;">
    <g>
      <g>
        <path d="M416,181.333C416,81.344,334.656,0,234.667,0S53.333,81.344,53.333,181.333c0,44.448,16.139,85.163,42.784,116.736 c-0.011,0.213-0.117,0.384-0.117,0.597v100.267c0,4.149,2.4,7.915,6.155,9.664l64,29.867l64,29.867 c1.429,0.672,2.965,1.003,4.512,1.003c1.536,0,3.083-0.331,4.512-1.003l64-29.867l64-29.867c3.755-1.739,6.155-5.515,6.155-9.664 V298.667c0-0.213-0.107-0.384-0.117-0.597C399.861,266.496,416,225.781,416,181.333z M160,412.053l-42.667-19.904v-72.811 c12.811,10.912,27.168,20.011,42.667,27.051V412.053z M288,422.005l-53.333,24.885l-53.333-24.885v-67.371 c16.875,5.205,34.773,8.032,53.333,8.032s36.459-2.827,53.333-8.032V422.005z M352,392.139l-42.667,19.915v-65.664 c15.499-7.04,29.856-16.139,42.667-27.051V392.139z M234.667,341.333c-88.235,0-160-71.776-160-160s71.765-160,160-160 c88.224,0,160,71.776,160,160S322.891,341.333,234.667,341.333z" style="fill: rgb(239, 77, 77);"/>
      </g>
    </g>
    <g>
      <g>
        <path d="M234.667,42.667C158.208,42.667,96,104.875,96,181.333C96,257.792,158.208,320,234.667,320 s138.667-62.208,138.667-138.667C373.333,104.875,311.125,42.667,234.667,42.667z M234.667,298.667 c-64.693,0-117.333-52.64-117.333-117.333C117.333,116.64,169.973,64,234.667,64S352,116.64,352,181.333 C352,246.027,299.36,298.667,234.667,298.667z" style="fill: rgb(239, 77, 77);"/>
      </g>
    </g>
    <g>
      <g>
        <path d="M302.187,161.312c-1.259-3.851-4.597-6.667-8.619-7.253l-34.101-4.96l-15.253-30.891c-3.584-7.296-15.541-7.296-19.125,0 l-15.253,30.891l-34.101,4.96c-4.021,0.587-7.36,3.392-8.619,7.253c-1.248,3.861-0.213,8.107,2.699,10.933l24.693,24.043 l-5.824,33.984c-0.683,4,0.96,8.043,4.235,10.421c3.307,2.4,7.669,2.709,11.232,0.811l30.517-16.021l30.507,16.032 c1.557,0.821,3.264,1.227,4.96,1.227c2.208,0,4.405-0.683,6.272-2.037c3.285-2.389,4.928-6.421,4.235-10.421l-5.824-33.984 l24.672-24.053C302.4,169.408,303.435,165.173,302.187,161.312z M255.925,184.939c-2.507,2.443-3.659,5.973-3.061,9.44 l3.115,18.197l-16.341-8.587c-1.557-0.821-3.253-1.227-4.96-1.227s-3.403,0.405-4.96,1.227l-16.341,8.587l3.115-18.197 c0.597-3.456-0.555-6.987-3.061-9.44l-13.216-12.885l18.251-2.656c3.477-0.501,6.485-2.688,8.032-5.835l8.171-16.544l8.171,16.544 c1.557,3.147,4.555,5.333,8.032,5.835l18.272,2.656L255.925,184.939z" style="fill: rgb(239, 77, 77);"/>
      </g>
    </g>
    <g>
      <g>
        <circle cx="181.333" cy="117.333" r="10.667" style="fill: rgb(239, 77, 77);"/>
      </g>
    </g>
    <g>
      <g>
        <circle cx="288" cy="117.333" r="10.667" style="fill: rgb(239, 77, 77);"/>
      </g>
    </g>
    <g>
      <g>
        <circle cx="160" cy="202.667" r="10.667" style="fill: rgb(239, 77, 77);"/>
      </g>
    </g>
    <g>
      <g>
        <circle cx="309.333" cy="202.667" r="10.667" style="fill: rgb(239, 77, 77);"/>
      </g>
    </g>
    <g>
      <g>
        <circle cx="234.667" cy="256" r="10.667" style="fill: rgb(239, 77, 77);"/>
      </g>
    </g>
  </g>
  <path d="M 197.55 222.25 Q 193.64 222.25 191.07 220.82 Q 188.5 219.39 187.27 217.08 Q 186.04 214.77 186.04 212.09 Q 186.04 209.69 186.98 207.36 Q 187.91 205.02 189.75 203.09 Q 191.59 201.17 194.22 200.06 Q 191.82 198.54 190.63 196.41 Q 189.43 194.28 189.43 191.94 Q 189.43 188.9 191.42 186.04 Q 193.4 183.18 197.2 181.31 Q 200.99 179.44 206.31 179.44 Q 209.99 179.44 212.18 180.35 Q 214.37 181.25 215.36 182.68 Q 216.35 184.11 216.35 185.75 Q 216.35 187.62 215.18 189.46 Q 214.02 191.3 211.83 192.46 Q 209.64 193.63 206.48 193.63 Q 207.42 190.89 207.42 189.08 Q 207.42 187.27 206.66 186.45 Q 205.9 185.63 204.79 185.63 Q 203.62 185.63 202.31 186.51 Q 200.99 187.38 200.12 188.96 Q 199.24 190.54 199.24 192.64 Q 199.24 193.75 199.59 195.12 Q 199.94 196.49 200.7 197.84 Q 201.99 197.02 203.07 196.64 Q 204.15 196.26 205.02 196.26 Q 206.83 196.26 207.65 197.52 Q 208.47 198.77 208.47 200.35 Q 208.47 202.22 207.33 203.91 Q 206.19 205.6 203.97 205.6 Q 201.93 205.6 199.18 203.68 Q 195.97 205.96 195.97 209.05 Q 195.97 211.44 197.46 212.67 Q 198.95 213.9 201.29 213.9 Q 204.26 213.9 207.94 211.82 Q 211.62 209.75 214.48 205.6 L 214.95 205.9 Q 214.83 209.98 213.29 213.05 Q 211.74 216.12 209.26 218.16 Q 206.78 220.2 203.74 221.23 Q 200.7 222.25 197.55 222.25 Z M 217.84 222.25 Q 215.86 222.25 214.63 220.93 Q 213.4 219.62 213.4 217.69 Q 213.4 216.82 213.7 215.88 Q 213.99 214.95 214.57 214.01 Q 215.74 214.19 216.67 214.19 Q 219.54 214.19 221.52 212.82 Q 223.51 211.44 224.68 208.93 Q 222.46 204.03 221 202.1 Q 219.54 200.17 218.6 200.17 Q 218.08 200.17 217.67 200.61 Q 217.26 201.05 216.85 201.69 L 216.56 201.58 Q 216.85 197.55 218.48 194.83 Q 220.12 192.11 222.63 192.11 Q 224.32 192.11 225.73 193.28 Q 227.13 194.45 228.3 196.26 Q 229.46 198.07 230.4 200.03 Q 231.33 201.98 232.09 203.5 Q 233.38 197.72 235.98 194.98 Q 238.57 192.23 241.03 192.23 Q 242.84 192.23 243.63 193.46 Q 244.41 194.68 244.41 196.44 Q 244.41 199.47 242.72 202.28 Q 242.31 202.22 241.87 202.19 Q 241.44 202.16 240.97 202.16 Q 238.63 202.16 236.68 203.24 Q 234.72 204.32 233.49 206.19 Q 235.77 210.45 237.17 212.17 Q 238.57 213.9 239.63 213.9 Q 240.68 213.9 241.2 212.61 L 241.67 212.79 Q 241.49 215.3 240.74 217.46 Q 239.98 219.62 238.66 220.93 Q 237.35 222.25 235.42 222.25 Q 233.44 222.25 231.77 220.79 Q 230.11 219.33 228.7 217.02 Q 227.3 214.72 226.08 212.09 Q 225.61 215.65 224.27 217.9 Q 222.92 220.15 221.2 221.2 Q 219.48 222.25 217.84 222.25 Z M 255.95 222.25 Q 252.09 222.25 249.44 220.5 Q 246.78 218.74 245.44 215.91 Q 244.09 213.08 244.09 209.81 Q 244.09 206.71 245.29 203.62 Q 246.49 200.52 248.82 197.93 Q 251.16 195.33 254.52 193.78 Q 257.88 192.23 262.26 192.23 Q 266.58 192.23 268.68 193.95 Q 270.78 195.68 270.78 197.72 Q 270.78 199.88 268.62 201.69 Q 266.46 203.5 262.31 203.5 Q 262.55 202.63 262.69 201.72 Q 262.84 200.82 262.84 200 Q 262.84 198.77 262.31 197.93 Q 261.79 197.08 260.45 197.08 Q 259.22 197.08 257.85 198.19 Q 256.47 199.3 255.51 201.46 Q 254.55 203.62 254.55 206.77 Q 254.55 209.87 255.57 211.8 Q 256.59 213.72 258.23 214.57 Q 259.86 215.42 261.67 215.42 Q 264.07 215.42 266.29 214.16 Q 268.5 212.9 269.5 210.69 L 270.08 210.92 Q 270.08 213.96 268.71 216.09 Q 267.34 218.22 265.18 219.59 Q 263.01 220.96 260.56 221.61 Q 258.11 222.25 255.95 222.25 Z M 286.05 222.25 Q 281.79 222.25 278.99 220.53 Q 276.18 218.8 274.78 215.97 Q 273.38 213.14 273.38 209.87 Q 273.38 206.77 274.58 203.65 Q 275.78 200.52 278.08 197.95 Q 280.39 195.38 283.69 193.81 Q 286.99 192.23 291.13 192.23 Q 296.27 192.23 298.64 194.54 Q 301 196.84 301 200.12 Q 301 202.92 299.52 205.28 Q 298.03 207.65 295.57 209.08 Q 293.12 210.51 290.2 210.51 Q 288.68 210.51 287.11 210.04 Q 285.53 209.58 284.01 208.58 Q 284.3 212.2 286.11 213.84 Q 287.92 215.47 290.43 215.47 Q 292.19 215.47 293.94 214.8 Q 295.69 214.13 297.18 213.05 Q 298.67 211.97 299.49 210.74 L 299.89 211.04 Q 299.89 214.07 298.64 216.2 Q 297.38 218.34 295.34 219.68 Q 293.3 221.02 290.87 221.64 Q 288.45 222.25 286.05 222.25 Z M 287.4 206.48 Q 289.27 206.48 290.43 205.4 Q 291.6 204.32 292.19 202.86 Q 292.77 201.4 292.77 200.29 Q 292.77 198.95 292.01 198.04 Q 291.25 197.14 289.91 197.14 Q 288.86 197.14 287.6 197.9 Q 286.35 198.66 285.35 200.49 Q 284.36 202.33 284.07 205.6 Q 285.94 206.48 287.4 206.48 Z M 308.98 222.07 Q 307.4 222.07 305.91 221.29 Q 304.42 220.5 303.49 218.74 Q 302.55 216.99 302.55 214.25 Q 302.55 211.8 303.22 208.5 Q 303.9 205.2 304.74 201.63 Q 305.59 198.07 306.23 194.68 Q 306.87 191.3 306.82 188.67 Q 306.82 186.16 306.23 185.11 L 306.17 184.93 Q 306.82 183.06 308.45 182.01 Q 310.09 180.96 311.9 180.96 Q 313.94 180.96 315.55 182.51 Q 317.15 184.06 317.15 187.68 Q 317.15 189.6 316.68 192.26 Q 316.22 194.92 315.58 197.93 Q 314.93 200.93 314.26 203.85 Q 313.59 206.77 313.12 209.23 Q 312.66 211.68 312.66 213.26 Q 312.66 214.89 313.12 215.5 Q 313.59 216.12 314.17 216.12 Q 314.82 216.12 315.4 215.62 Q 315.98 215.12 316.16 214.72 L 316.63 214.83 Q 316.57 216.93 315.43 218.57 Q 314.29 220.2 312.57 221.14 Q 310.84 222.07 308.98 222.07 Z M 329.56 222.07 Q 327.99 222.07 326.5 221.29 Q 325.01 220.5 324.07 218.74 Q 323.14 216.99 323.14 214.25 Q 323.14 211.8 323.81 208.5 Q 324.48 205.2 325.33 201.63 Q 326.18 198.07 326.82 194.68 Q 327.46 191.3 327.4 188.67 Q 327.4 186.16 326.82 185.11 L 326.76 184.93 Q 327.4 183.06 329.04 182.01 Q 330.67 180.96 332.48 180.96 Q 334.53 180.96 336.13 182.51 Q 337.74 184.06 337.74 187.68 Q 337.74 189.6 337.27 192.26 Q 336.8 194.92 336.16 197.93 Q 335.52 200.93 334.85 203.85 Q 334.18 206.77 333.71 209.23 Q 333.24 211.68 333.24 213.26 Q 333.24 214.89 333.71 215.5 Q 334.18 216.12 334.76 216.12 Q 335.4 216.12 335.99 215.62 Q 336.57 215.12 336.75 214.72 L 337.21 214.83 Q 337.15 216.93 336.02 218.57 Q 334.88 220.2 333.15 221.14 Q 331.43 222.07 329.56 222.07 Z M 351.93 222.25 Q 347.67 222.25 344.86 220.53 Q 342.06 218.8 340.66 215.97 Q 339.26 213.14 339.26 209.87 Q 339.26 206.77 340.45 203.65 Q 341.65 200.52 343.96 197.95 Q 346.26 195.38 349.56 193.81 Q 352.86 192.23 357.01 192.23 Q 362.15 192.23 364.51 194.54 Q 366.88 196.84 366.88 200.12 Q 366.88 202.92 365.39 205.28 Q 363.9 207.65 361.45 209.08 Q 359 210.51 356.08 210.51 Q 354.56 210.51 352.98 210.04 Q 351.4 209.58 349.89 208.58 Q 350.18 212.2 351.99 213.84 Q 353.8 215.47 356.31 215.47 Q 358.06 215.47 359.81 214.8 Q 361.57 214.13 363.05 213.05 Q 364.54 211.97 365.36 210.74 L 365.77 211.04 Q 365.77 214.07 364.51 216.2 Q 363.26 218.34 361.22 219.68 Q 359.17 221.02 356.75 221.64 Q 354.32 222.25 351.93 222.25 Z M 353.27 206.48 Q 355.14 206.48 356.31 205.4 Q 357.48 204.32 358.06 202.86 Q 358.65 201.4 358.65 200.29 Q 358.65 198.95 357.89 198.04 Q 357.13 197.14 355.78 197.14 Q 354.73 197.14 353.48 197.9 Q 352.22 198.66 351.23 200.49 Q 350.24 202.33 349.94 205.6 Q 351.81 206.48 353.27 206.48 Z M 375.03 222.02 Q 372.87 222.02 371.11 220.29 Q 369.36 218.57 369.36 215.47 Q 369.36 213.96 369.77 212.03 Q 370.18 210.1 370.68 208.12 Q 371.17 206.13 371.58 204.38 Q 371.99 202.63 371.99 201.52 Q 371.99 200.35 371.52 199.68 Q 371.06 199.01 370.3 199.01 Q 369.3 199.01 368.14 200.17 L 367.79 199.94 Q 367.73 199.01 368.19 197.72 Q 368.66 196.44 369.62 195.24 Q 370.59 194.04 372.11 193.22 Q 373.63 192.41 375.73 192.41 Q 378.82 192.41 380.31 194.19 Q 381.8 195.97 381.8 198.54 Q 381.8 199.47 381.63 200.35 Q 382.85 198.54 384.66 196.7 Q 386.47 194.86 388.66 193.63 Q 390.85 192.41 393.19 192.41 Q 395.93 192.41 396.93 194.16 Q 397.92 195.91 397.92 198.54 Q 397.92 200.99 397.39 203.79 Q 396.87 206.6 396.34 209.2 Q 395.82 211.8 395.82 213.55 Q 395.82 215.88 397.16 215.88 Q 397.86 215.88 398.39 215.45 Q 398.91 215.01 399.09 214.6 L 399.5 214.77 Q 399.5 216.93 398.3 218.57 Q 397.1 220.2 395.29 221.11 Q 393.48 222.02 391.61 222.02 Q 389.33 222.02 387.58 220.44 Q 385.83 218.86 385.83 215.3 Q 385.83 213.2 386.39 210.74 Q 386.94 208.29 387.47 206.01 Q 387.99 203.74 387.99 202.28 Q 387.99 201.4 387.67 200.9 Q 387.35 200.41 386.53 200.41 Q 385.19 200.41 383.58 201.63 Q 381.98 202.86 380.84 204.9 Q 379.7 206.95 379.7 209.4 Q 379.7 210.98 380.08 212.44 Q 380.46 213.9 380.46 215.59 Q 380.46 218.74 378.82 220.38 Q 377.19 222.02 375.03 222.02 Z M 409.42 222.07 Q 407.56 222.07 405.89 221.23 Q 404.23 220.38 403.21 218.57 Q 402.18 216.76 402.18 213.96 Q 402.18 212.44 402.48 209.98 Q 402.77 207.53 403.26 204.61 Q 403.76 201.69 404.29 198.77 Q 403.12 198.83 402.04 199.01 Q 400.96 199.18 399.91 199.41 L 399.79 199.01 Q 400.96 197.6 402.24 196.61 Q 403.53 195.62 404.93 194.98 Q 405.69 191.12 406.21 188.29 Q 406.74 185.46 406.74 184.93 Q 406.74 183.94 408.29 183.3 Q 409.83 182.65 411.76 182.65 Q 413.45 182.65 414.94 183.3 Q 416.43 183.94 416.96 185.46 Q 416.61 185.81 415.97 188.06 Q 415.32 190.3 414.62 193.52 Q 415.73 193.57 416.9 193.63 Q 418.07 193.69 419.29 193.81 Q 419.41 194.16 419.47 194.57 Q 419.53 194.98 419.53 195.44 Q 419.53 196.32 419.27 197.34 Q 419 198.36 418.65 199.18 Q 417.25 199.06 416.02 198.92 Q 414.8 198.77 413.63 198.71 Q 413.16 201.22 412.78 203.74 Q 412.4 206.25 412.2 208.29 Q 411.99 210.34 411.99 211.5 Q 411.99 213.96 412.9 214.77 Q 413.8 215.59 415.09 215.59 Q 416.26 215.59 417.19 215.12 Q 418.13 214.66 418.54 214.01 L 419.12 214.19 Q 418.77 216.58 417.25 218.37 Q 415.73 220.15 413.63 221.11 Q 411.53 222.07 409.42 222.07 Z M 429.6 208.52 Q 428.32 208.52 427.3 208.03 Q 426.27 207.53 426.1 206.36 Q 426.21 203.79 426.59 200.49 Q 426.97 197.2 427.5 193.75 Q 428.03 190.3 428.55 187.15 Q 429.08 184 429.49 181.63 Q 429.89 179.27 430.07 178.22 Q 430.24 177.28 431.65 176.64 Q 433.05 176 434.86 176 Q 436.84 176 438.74 176.99 Q 440.64 177.98 441.4 180.49 Q 440.58 181.78 439.35 184.58 Q 438.13 187.38 436.9 191.09 Q 435.68 194.8 434.8 198.98 Q 433.92 203.15 433.75 207.3 Q 433.11 207.82 431.94 208.17 Q 430.77 208.52 429.6 208.52 Z M 428.73 222.19 Q 426.27 222.19 424.7 220.67 Q 423.12 219.15 423.12 216.88 Q 423.12 214.42 424.96 212.64 Q 426.8 210.86 429.43 210.86 Q 431.88 210.86 433.49 212.41 Q 435.09 213.96 435.09 216.23 Q 435.09 218.69 433.22 220.44 Q 431.35 222.19 428.73 222.19 Z" style="fill: rgb(239, 77, 77); stroke: rgb(255, 255, 255);"/>
</svg>